<svg id="Layer_1" data-name="Layer 1" xmlns="http://www.w3.org/2000/svg" viewBox="0 0 1000 1000"><defs><style>.cls-1{fill:#003c63;}.cls-2{fill:#9fd9fe;}</style></defs><title>E K</title><path class="cls-1" d="M69.18,930.82a54.6,54.6,0,0,0,38.73,16H892.09a54.77,54.77,0,0,0,54.77-54.77V107.91a54.6,54.6,0,0,0-16-38.73Z"/><path class="cls-2" d="M892.09,53.14H107.91a54.77,54.77,0,0,0-54.77,54.77V892.09a54.6,54.6,0,0,0,16,38.73L930.82,69.18A54.6,54.6,0,0,0,892.09,53.14Z"/><path class="cls-1" d="M380.18,426.65q8.05,8.06,8.06,18.65,0,11.52-8.06,18.88t-20,7.37H205.86a27.54,27.54,0,0,1-28.09-28.09V177.25a27.54,27.54,0,0,1,28.09-28.09H360.15q12,0,20,7.6t8.06,19.57q0,11.52-7.83,18.65t-20.26,7.14H235.34v78.29H339.42q12,0,20,7.6t8.06,19.57q0,11.52-7.83,18.65t-20.26,7.14H235.34v85.2H360.15A27.22,27.22,0,0,1,380.18,426.65Z"/><path class="cls-2" d="M831.52,816.67a30.39,30.39,0,0,1,1.84,9.9,26.46,26.46,0,0,1-9.44,20.72A32.16,32.16,0,0,1,802,855.59a25.42,25.42,0,0,1-11.51-2.76,25.09,25.09,0,0,1-9.21-7.83L681.38,713.28l-43.75,41.91V827.5q0,12.44-8.06,20.26t-21,7.83q-12.43,0-20.49-8.06a27.17,27.17,0,0,1-8.06-20V561.3a26.82,26.82,0,0,1,8.29-20q8.29-8.05,21.19-8.06,12.44,0,20.26,7.83t7.83,20.26V686.57L785,541.49q10.59-10.59,22.57-10.59,10.59,0,18,8.75t7.37,18.42q0,9.67-8.29,18l-100.4,95.8,102.7,135.86A33,33,0,0,1,831.52,816.67Z"/></svg>